# xmcd CD database file
#
# Track frame offsets:
#	150
#	16598
#	32905
#	48739
#	64605
#	77356
#	91353
#	106176
#	121050
#	136231
#	149521
#	166370
#	182133
#
# Disc length: 2633 seconds
#
# Revision: 2
# Processed by: cddbd v1.5.1PL2 Copyright (c) Steve Scherf et al.
# Submitted via: CDex 1.51
#
DISCID=a30a470d
DTITLE=Olivia Newton John - Olivia Newton John
DYEAR=2001
DGENRE=Pop
TTITLE0=I Honeslty Love You
TTITLE1=Summer Nights
TTITLE2=A Little More Love
TTITLE3=Have You Ever Been Mellow
TTITLE4=You're The One That I Want
TTITLE5=Hopelessly Devoted To You
TTITLE6=Banks Of The Ohio
TTITLE7=Take Me Home, Country Roads
TTITLE8=Please, Mr. Please
TTITLE9=If Not For You
TTITLE10=Physical
TTITLE11=Xanadu
TTITLE12=What Is Life
EXTD=YEAR: 2001
EXTT0=
EXTT1=
EXTT2=
EXTT3=
EXTT4=
EXTT5=
EXTT6=
EXTT7=
EXTT8=
EXTT9=
EXTT10=
EXTT11=
EXTT12=
PLAYORDER=
